# xmcd CD database file
#
# Track frame offsets:
#	150
#	2687
#	19997
#	43500
#	63817
#	89417
#	100587
#	103510
#	133530
#	163070
#	189540
#
# Disc length: 3267 seconds
#
# Revision: 1
# Processed by: cddbd v1.4PL0 Copyright (c) Steve Scherf et al.
# Submitted via: CDex 1.50Beta7
#
DISCID=820cc10b
DTITLE=The Gerry Mulligan Quartets in Concert - Norman Granz Jazz at the Philharmonic
DYEAR=2001
DGENRE=Jazz
TTITLE0=Introduction by Norman Granz
TTITLE1=Come out, come out wherever you are
TTITLE2=Baubles, Bangels and Beads
TTITLE3=Laura
TTITLE4=Bweebida Bobbida
TTITLE5=Utter Chaos
TTITLE6=Introduction by Norman Granz
TTITLE7=Open Country
TTITLE8=Love in New Orleans
TTITLE9=Four for Three
TTITLE10=Subterranean Blues
EXTD=YEAR: 2001
EXTT0=
EXTT1=
EXTT2=
EXTT3=
EXTT4=
EXTT5=
EXTT6=
EXTT7=
EXTT8=
EXTT9=
EXTT10=
PLAYORDER=
